<?xml version="1.0" encoding="UTF-8"?>
<svg id="Layer_2" data-name="Layer 2" xmlns="http://www.w3.org/2000/svg" viewBox="0 0 27.31 25.77">
  <defs>
      <style>
        .cls-1 {
          fill: #111;
          fill-rule: evenodd;
        }
      
        @media (prefers-color-scheme: dark) {
          .cls-1 {
            fill: #eee;
          }
        }
      </style>
  </defs>
  <g id="Layer_1-2" data-name="Layer 1">
    <g>
      <path class="cls-1" d="M19.37,25.14c-.09-.01-.36.16-.41.1l-.15.06c.16-.11.44-.17.6-.27-.04.04,0,.07-.05.12Z"/>
      <path class="cls-1" d="M17.87,25.56c-.05.01-.08.03-.09.04-.07.02,0-.04-.1,0,.15-.07.35-.1.52-.15,0,.04-.34.16-.33.1Z"/>
      <path class="cls-1" d="M19.86,24.7c-.06.08-.36.16-.35.21-.1.04-.01-.02-.05-.03-.06.05-.16.11-.21.15-.12.03-.37.15-.54.18.01-.11-.49.17-.53.09.1-.03.22-.08.24-.06.38-.18.65-.2.86-.29.17-.07.36-.2.57-.26Z"/>
      <path class="cls-1" d="M15.23,25.5s.23-.04.14-.06c.07,0,.2,0,.09.03.16-.03.44-.09.56-.08.02,0-.14.06.03.02-.16.13-.69.1-.83.09Z"/>
      <path class="cls-1" d="M14.48,25.57s-.1-.01-.09-.03c.09,0,.09.01.18,0,0,.01-.1,0-.09.02Z"/>
      <path class="cls-1" d="M14.9,25.55c-.11.02-.22.02-.3,0,.09-.02.25-.04.3,0Z"/>
      <path class="cls-1" d="M13.01,25.5s.16,0,.24,0c.02.03-.17,0-.24,0Z"/>
      <path class="cls-1" d="M15.31,25.44l-.15.02s.17-.05.15-.02Z"/>
      <path class="cls-1" d="M14.95,25.38c.07-.03.38-.07.38-.03-.09.02-.28.02-.38.03Z"/>
      <path class="cls-1" d="M14.59,25.38c.13,0,.27-.02.33,0-.05.04-.35.05-.33,0Z"/>
      <path class="cls-1" d="M14.36,25.41h-.15s.12-.04.18-.02c-.02,0-.03.01-.03.02Z"/>
      <path class="cls-1" d="M13.94,25.29s.13-.03.2-.05c.14.03-.03.06-.2.05Z"/>
      <path class="cls-1" d="M13.42,25.27c.06-.02.04-.02.09-.04.09,0,.13.02.2.02v.03c-.08,0-.15,0-.29-.02Z"/>
      <path class="cls-1" d="M13.83,25.28c-.14,0,0-.05.06-.02-.02,0-.07,0-.06.02Z"/>
      <path class="cls-1" d="M13.16,25.24c-.12,0-.15-.02-.26-.03-.01-.05.26,0,.41,0,.06.02-.28-.02-.15.03Z"/>
      <path class="cls-1" d="M12.66,25.2s.11-.04.18-.02c-.03.02-.1.02-.18.02Z"/>
      <path class="cls-1" d="M18.66,24.3c-.05.01-.12,0,.01-.05-.04.04.04,0-.01.05Z"/>
      <path class="cls-1" d="M14.41,25.25v-.02c.09,0,.11,0,.29,0-.01.03-.21.01-.29.03Z"/>
      <path class="cls-1" d="M14.5,25.2c.2-.03.62-.03.78-.08.05.04-.23.07-.23.04-.21.04-.34.04-.55.04Z"/>
      <path class="cls-1" d="M19.68,23.68s-.15.1-.17.1c0-.04.12-.09.17-.1Z"/>
      <path class="cls-1" d="M15.75,24.96c.28-.05.42-.07.65-.11.04,0,.01,0,0,.02-.22.06-.53.1-.66.09Z"/>
      <path class="cls-1" d="M16.85,24.72c-.16.04-.34.07-.32.02.14-.03.15,0,.31-.06-.01.03-.02.02,0,.04Z"/>
      <path class="cls-1" d="M24.3,17.25s.02-.13.05-.22c.04,0-.03.15-.05.22Z"/>
      <path class="cls-1" d="M26.43,17.97c.01-.05-.05,0,0-.11.05-.16.08-.06.13-.2.05-.12-.01-.08.02-.17.08-.13.1-.3.15-.47.04-.13.1-.25.14-.38.04-.14.03-.26.06-.39.07-.26.17-.53.16-.81.03-.08.02-.02.05-.06.12-.93.28-2.09.13-3.01.04-.28.02-.77-.09-1.15.02-.13-.03-.51-.13-.74.03-.14-.11-.64-.21-.86-.02-.12-.03-.12,0-.14-.1-.24-.17-.3-.24-.53.02-.13-.08-.42-.19-.62.02,0,.01-.03,0-.07-.12-.15-.24-.52-.28-.67-.16-.3-.32-.63-.51-.94-.18-.32-.35-.64-.59-.89-.11-.25-.38-.56-.64-.86-.06-.09-.11-.17-.2-.29-.22-.19-.42-.45-.65-.68-.24-.22-.48-.45-.72-.6l-.06-.09c-.27-.26-.54-.42-.79-.61-.26-.19-.53-.38-.88-.59-.13-.03-.28-.08-.46-.17-.09-.06-.13-.12-.15-.16-.34-.19-.71-.35-1.08-.49-.02.06.02.09-.1.06-.23-.1-.15-.13-.11-.19-.49-.21-1.02-.4-1.42-.5-.44-.16-1.07-.3-1.71-.39-.14.05-.37.06-.61.06-.07-.02-.15-.04-.17-.07.01-.03.13-.01.14-.04.01-.02-.04-.03-.03-.05-.29-.05-.5-.03-.67,0-.46-.09-1.01-.1-1.55-.08-.07.02-.14.05-.24.06-.41-.16-1.55.12-2.03.29-.2-.02-.51.03-.82.08-.1.02-.1.06-.2.08-.56.1-1.26.43-1.75.63-.03.05-.14.1-.2.15-.25.03-.86.3-1.02.52-.07.02-.14.02-.22.05-.31.25-.65.34-.79.57-.47.19-.92.64-1.33,1.04-.3.28-.6.44-.87.76-.07.09-.07.14-.17.24-.04.04-.04,0-.09.06-.35.35-.66.93-.94,1.24-.06.07-.12.08-.19.18-.15.18-.24.41-.33.61-.15.15-.21.4-.36.55-.33.64-.55,1.23-.82,1.9-.46,1.33-.73,3.01-.77,4.55.02.07.05.11.05.22-.01.08-.04.12-.03.25l.05.29c-.04.47.05.95.14,1.43.05.22.06.56.14.89.19.75.44,1.54.74,2.25.17.42.36.72.51,1.02.14.29.26.49.41.71.35.59.61,1.05.87,1.6.38.32.38.68.75,1.06.73.58,1.15.29,1.91.81.24.05.42-.02.62-.06.15.06.31.12.44.13.05-.13.03-.36.25-.3-.2-.28.24-.24.22-.46.43-.24.24-.78.52-1.04-.05-.08-.08-.13.02-.16-.04-.18-.29-.45-.16-.56-.17-.15.04-.18.09-.26-.02-.08-.18-.19-.05-.25-.19-.2-.4-.52-.66-.7-.07-.06,0-.08-.07-.14-.45-.48-.78-.97-1.19-1.36,0-.2-.26-.48-.38-.64-.15-.41-.41-.71-.58-1.13-.09-.3-.26-.5-.35-.76-.02-.09-.06-.25-.1-.38-.09-.27-.14-.51-.14-.69-.05-.11-.11-.24-.09-.38-.06-.07-.09-.39-.1-.57-.09-.24-.15-.53-.1-.85-.05-.21.04-.47-.04-.59.03-.1.03-.39,0-.54.11-.08.07-.32.04-.43,0-.05.05,0,.06-.04.13-.53.15-1.1.42-1.64,0-.23.15-.57.24-.75.02-.06-.02-.07.02-.14.38-.9.88-1.6,1.34-2.34.21-.18.39-.42.56-.66.19-.23.4-.43.62-.55.33-.44.97-.78,1.39-1.11.23-.04.5-.34.73-.43.18-.08.45-.12.56-.28.16,0,.56-.24.78-.27.02-.06.08-.06.16-.12.24-.05.43-.14.7-.16.44-.22.94-.17,1.41-.34.21.05.41-.01.58-.03.02,0,.08.02.11.01.25-.03.47-.07.65-.06.09.07.27-.01.36-.02.17.07.43.01.69.02.23.1.5.12.76.13.26.03.5.06.67.14.28.04.51.07.8.19.07.02.05-.04.15,0,.1.08.29.16.51.23.21.09.43.19.62.28.06.02.05-.03.1-.02.19.14.44.19.64.27.34.26.6.34.95.66.09.03.19.08.29.12.29.26.79.65,1.12.99.24.17.71.72.89,1.02.04.02.06-.03.11.02.03.04-.02.04.03.08.02-.04.06.01.1.06,0,.08.06.19.18.29-.03.02,0,.08.01.13.07.09.13.12.2.23.08.28.42.68.56,1.05.03.03.06,0,.1.08,0,.05,0,.16.09.2.03.12.13.41.23.57-.07.22.32.7.28,1.01.02.09.05.05.08.15-.01.24.17.43.21.66,0,.03-.03.04-.05.04.03.28.14.54.12.76.01.15.06.16.08.27-.1.3.05.72.02,1.16-.03.19-.02.41-.03.63-.09.83-.24,1.72-.52,2.5,0,.1,0,.21-.07.41-.04.05-.03.02-.06.04-.09.28-.21.61-.32.73,0,.11-.07.21-.14.39-.2.09-.39.62-.56.88.03.02.04-.01.05.03-.04.16-.2.32-.28.47.02-.05,0-.06.04-.13.04-.01.11-.14.12-.18-.18.14-.54.57-.71.87-.22.22-.51.59-.69.81-.1.03-.43.4-.52.53-.26.17-.55.5-.79.63,0,.02.06.02.01.06-.28.26-.61.45-.86.66-.06.03-.22.1-.18.13,0,.02.15-.1.13-.05-.09.11-.36.26-.51.35.09,0-.05.09-.06.13-.1.04-.2.09-.25.13.03-.05-.07.02-.09,0-.3.15-.67.3-.99.41,0,.01-.02.03-.07.05,0-.02.08-.04.07-.05-.29.08-.6.18-.84.25.05.04.35-.08.52-.12.23-.04.55-.15.74-.27-.01.03.06,0,.06,0,.52-.18,1.23-.53,1.67-.83-.03.06-.14.12-.22.18-.38.24-.89.47-1.35.65.03.01-.08.04-.07.06.2-.02.32-.16.5-.21,0,.03.06.04,0,.07-.13.07-.1,0-.22.06-.09.06-.22.11-.37.15-.01-.01.02-.03.02-.04-.07.03-.2.11-.23.12v-.04s.2-.08.25-.12c-.32.1-.62.2-.92.29.13-.05.1.01.25-.05-.04.06.12,0,.18,0-.02.02,0,.04-.04.06-.19.05-.35.09-.53.13t.07.04c.32-.09.58-.11.88-.28.06.02.23-.07.29-.06.1-.04.09-.06.15-.09.05,0-.01.02.04.02.38-.16.57-.25.97-.45.05-.03,0-.03.06-.07.13-.03.45-.27.65-.32-.13.06-.17.13-.26.19-.37.28-.96.41-1.22.67.09-.05.2-.07.15-.02-.1,0-.25.14-.43.17-.04-.02.06-.09.11-.12-.12.03-.26.09-.4.17-.16,0-.47.13-.67.2-.04,0-.06-.02-.12,0-.07.04-.26.1-.31.08-.09.04-.19.07-.28.07.03.02-.09.03-.08.05.17-.03.27-.05.46-.09-.21.1-.52.12-.82.2,0-.02.13-.04.05-.04-.29.05-.6.16-.8.14.05.03-.21.02-.23.07.07,0,.13.01.24,0,.07,0,.01-.04.11-.04.04.08.33,0,.42.05-.22.07-.42.05-.61.07.07,0,.05.01.03.03-.09,0-.1-.03-.18-.03-.09.02-.24.05-.29.05,0-.03.03-.05.08-.06-.21.03-.46.08-.73.06-.06.02.03.03.03.05h.18s-.02-.01.06-.03c.08,0,.08.01.09.03.13,0,.07-.05.2-.05.07.01-.04.02-.03.04.42-.04.79.01,1.15-.1.08,0,.19,0,.24.02-.22.06-.57.08-.85.12.03.04.15,0,.24-.02.19.04.65-.07.84-.04-.02,0-.03.01-.03.02-.11.02-.19.04-.27.04.1.02-.12.05-.2.09,0,.03-.12.1-.07.11,0-.03.32-.03.22.02.47-.09.7-.06,1.09-.17-.4.13-.78.13-1.07.28,0-.05-.42.05-.65.04.05.03-.05.03-.09.05.05.02.27-.02.31,0,.1,0,.04-.03.12-.04.07.01.23,0,.31-.03.02.02.08.01.13.02.52-.08.84-.11,1.48-.32.03.01.08.01.16,0,.2-.14.39-.15.64-.24.24-.07.4-.17.61-.25.04-.04.05-.08,0-.08.11-.05.13-.13.21-.14-.03.05-.12.11-.07.15-.05.05-.14.07-.13.09.21-.1.34-.13.57-.25.09.07.46-.16.64-.21.13-.09.26-.19.32-.26.06,0,.07.03.13.02.15-.09.12-.13.21-.2.09,0,.32-.19.42-.22-.22.14-.44.35-.61.46.24.04.69-.46,1.07-.64.1-.07.06-.08.14-.14.01.02-.03.06.03.03.06-.05.04-.06.12-.11.03,0-.03.07.03.04.03-.09.21-.24.35-.38.04,0,.14-.05.22-.14.01-.04.01-.07.05-.13.01.02.05-.02.08-.02.22-.23.44-.51.57-.61-.07.09.03.06.09,0,.2-.37.8-.85,1.01-1.27.04-.04.1-.1.16-.21.05-.08-.01-.03,0-.07.11-.14.02.11.1-.02.07-.14.09-.22.02-.18.06-.07.13-.18.18-.23.07.12.27-.41.4-.53,0,.03-.08.14-.04.13.1-.15.15-.39.28-.63-.07.02.04-.25.06-.3.07-.1.12-.07.17-.14.05-.2.25-.44.37-.74ZM22.4,23.16c-.09,0-.25.13-.29.1.18-.15.31-.21.44-.36.02,0,.03,0,.06-.03.02.05-.08.16-.21.28ZM20.51,24.38s.08-.08.08-.11c.05-.02.15-.09.15-.06-.08.03-.12.1-.23.17ZM24.32,20.62c-.08.06-.15.23-.21.23.07-.1.08-.15.17-.26.04,0,.04,0,.04.03ZM18.39,25.16s.15-.08.19-.11c.06,0-.06.07-.19.11ZM21.83,22.93c-.02-.05.12-.11.2-.19,0,.04-.11.09-.2.19ZM20.45,23.88c.07-.04.05-.07-.02-.03-.02-.01.1-.07.06-.07.3-.15.39-.29.66-.42-.1.12-.4.35-.54.39-.06.03-.08.06-.06.07.07-.04.09-.02.21-.12.01,0-.02.04,0,.05-.16.06-.38.24-.46.19.02-.02.05-.04.1-.07.06-.02-.02.04.05.02ZM19.17,24.64c-.11.05-.19.08-.26.09,0-.03.16-.08.09-.1.14-.1.29-.08.17,0ZM19.87,24.26l-.02-.04c.08-.05.09-.02.19-.1,0,.03-.06.06-.17.13ZM19.91,24.16l-.02-.04c.14-.1.22-.13.32-.17,0,.06-.19.16-.3.2ZM18.4,24.83c-.11.04-.17.04-.26.07.03-.02.3-.13.26-.07ZM18.62,24.74c-.07.03-.12.04-.12.02.07-.03.12-.04.12-.02ZM20.18,23.84c.08-.06-.09.03-.02-.03.03-.02.04-.03.05-.04.11-.07.12-.04.22-.1-.02.07.18-.07.21-.06-.04.05-.08.11-.19.15-.03,0,.04-.04.03-.06-.19.07-.39.28-.61.39-.02-.02,0-.06.07-.11-.02-.05-.15.04-.21.05-.08.07,0,.09.09.04,0,.07-.18.09-.17.13-.14.03-.07-.07-.22-.03-.02-.03.1-.08.05-.1.1-.05.09-.04.18-.09.04.02-.07.07-.05.09.15-.07.42-.21.56-.23ZM19.25,24.38s-.03-.04,0-.06c-.09.02-.26.12-.32.17-.09-.04-.2-.09-.03-.22.09,0,.08.06,0,.14.06,0,.09-.06.16-.09.05.02.24-.07.4-.13-.04.06,0,.11-.21.19ZM18.18,24.78c-.16.02-.3.08-.48.16-.08.03-.04-.02-.1,0,.07-.04.35-.12.24-.13.14-.02.25-.03.43-.11v.03c-.05.02-.09.04-.09.06ZM21.18,23.08s-.03,0-.04,0c-.07.08-.3.26-.45.35-.04-.02.06-.09.09-.14.22-.15.41-.28.74-.5-.07.09-.3.23-.34.29ZM16.72,25.17c-.09.04-.18.02-.27.04.05-.02.09-.05.2-.07,0,.02.02.03.07.03ZM18.02,24.76v-.02s.13-.06.11-.03c-.02.02-.06.03-.11.05ZM18.03,24.7c-.31.16-.82.19-1.05.31-.19,0-.58.1-.79.09.33-.12.56-.02.97-.21.06.03.35-.07.52-.1l.08-.04c.06-.06-.17-.02-.05-.06.08.03.31-.07.32.01ZM19.11,24.15s.08-.08.08-.11c.04,0,.08-.02.1,0-.07.04-.07.07-.17.11ZM19.52,23.93c-.07.04-.09.03-.09,0,.09-.04.19-.09.17-.12.16-.07-.06.08-.08.11ZM17.89,24.56c.07-.02.05-.04.13-.06.02,0,.07,0,.07.02-.07.05-.21.09-.2.04ZM16.15,25.07l-.14.03s.12-.05.16-.07c.03.02-.04.03-.02.04ZM22.1,21.82c.1-.09.23-.29.33-.32,0,.07-.28.34-.33.32ZM21.7,22.24c0-.08-.24.05-.06-.16.09-.08.14-.09.23-.17-.04.07-.13.16-.18.23.05-.02.11-.05.17-.07-.03.05-.06.09-.16.17ZM21.07,22.79c-.08.03-.17.11-.26.18,0-.03.1-.1.15-.14l-.03-.04c.07,0,.11-.04.18-.06-.01.02-.05.05-.03.05ZM20.61,23.1h0c.04-.06.03-.04.09-.08h0c-.06.06-.04.06-.09.08ZM20.46,23.18c-.11.08-.08,0-.24.11.04-.04.21-.16.26-.18-.02.03,0,.04-.02.07ZM18.93,23.99l-.1.05s-.02-.03-.03-.07c.09-.03.09-.02.13.01ZM18.6,24.16s.09-.12.12-.08c-.08.03-.04.05-.12.08ZM25.05,13.83s-.01.07,0,.14c0-.02,0-.06-.03-.06,0-.03.01-.07,0-.14.01.01.01.05.03.06ZM25.02,14.31s-.02-.15,0-.19c.04.02,0,.14,0,.19ZM24.97,14.8c0-.18.01-.27.04-.42.05.06.01.39-.04.42ZM19.55,23.38s-.02-.04-.01-.08c.1-.08.3-.2.39-.22l-.38.3ZM20.57,22.65s.08-.1.1-.15c-.03,0-.11.04-.13.01.05-.04.07-.04.14-.09.04,0,.08,0,.09.03-.1.08-.1.12-.2.2ZM20.37,22.8c-.05.04-.06.02-.12.08-.02-.04.08-.12.17-.2.07,0-.08.1-.05.12ZM23.43,19.23c.03-.06.06-.12.08-.14.02.04-.05.16-.08.14Z"/>
      <path class="cls-1" d="M20.07,24.84c-.05-.06-.34.11-.5.21.02-.03.02-.05-.1.01-.01-.03.1-.09.16-.1,0,0,.06-.06-.01-.03.3-.11.65-.34.94-.46,0,.08-.2.24-.49.37Z"/>
    </g>
  </g>
</svg>
